Coordinates
version=1
nRows=14
nColumns=40
inDegrees=yes

Units are S.I. units (second, meters, Newtons, ...)
If the header above contains a line with 'inDegrees', this indicates whether rotational values are in degrees (yes) or radians (no).

endheader
time	pelvis_tilt	pelvis_list	pelvis_rotation	pelvis_tx	pelvis_ty	pelvis_tz	hip_flexion_r	hip_adduction_r	hip_rotation_r	knee_angle_r	knee_angle_r_beta	ankle_angle_r	subtalar_angle_r	mtp_angle_r	hip_flexion_l	hip_adduction_l	hip_rotation_l	knee_angle_l	knee_angle_l_beta	ankle_angle_l	subtalar_angle_l	mtp_angle_l	lumbar_extension	lumbar_bending	lumbar_rotation	arm_flex_r	arm_add_r	arm_rot_r	elbow_flex_r	pro_sup_r	wrist_flex_r	wrist_dev_r	arm_flex_l	arm_add_l	arm_rot_l	elbow_flex_l	pro_sup_l	wrist_flex_l	wrist_dev_l
      0.23000000	    -15.96595158	     -2.41278394	    -10.04320953	      1.00019966	      0.98279500	     -0.34361622	     42.80597374	     10.26043836	     -3.33348424	     37.53987392	      0.65519440	      0.30672402	      0.00000000	      0.00000000	     14.73868115	     -3.26805267	     -2.15069626	     92.35505876	      1.61189986	    -12.27997296	      0.00000000	      0.00000000	      4.84354113	      8.39424286	      1.57399292	    -36.87714075	    -24.50850447	     -8.32621491	    108.39420515	     38.67094921	      0.00000000	      0.00000000	    -30.35487971	    -15.18444480	      1.40643598	    116.15639622	     39.45637959	      0.00000000	      0.00000000
      0.24000000	    -14.95768107	     -3.05715110	    -10.01906127	      0.99591952	      0.97745937	     -0.34437788	     41.68943381	     10.85969854	     -2.45744855	     41.97040132	      0.73252169	      3.54329372	      0.00000000	      0.00000000	     17.34134744	     -4.35450718	     -1.46863451	     96.82869587	      1.68997955	    -11.53747281	      0.00000000	      0.00000000	      2.62459677	      9.20037547	      2.90649772	    -34.04185535	    -24.80381012	     -8.15485968	    107.14511774	     39.78321851	      0.00000000	      0.00000000	    -29.39557916	    -14.84090634	      1.77664468	    112.50454292	     40.55495507	      0.00000000	      0.00000000
      0.25000000	    -14.25288057	     -3.11596968	    -10.05370361	      0.99201252	      0.97253841	     -0.34478017	     40.02541368	     10.89577116	     -1.87882380	     44.54430411	      0.77744477	      5.54613081	      0.00000000	      0.00000000	     20.46028653	     -4.93107369	     -1.03260238	    100.70905905	      1.75770467	    -10.91609225	      0.00000000	      0.00000000	      0.77586642	      9.29500580	      4.46944740	    -31.60695227	    -24.89759056	     -7.79210005	    105.95158855	     40.19400276	      0.00000000	      0.00000000	    -29.08015211	    -14.54727786	      2.33072955	    109.63424474	     40.95174461	      0.00000000	      0.00000000
      0.26000000	    -13.67755517	     -3.31961903	     -9.57374731	      0.98810682	      0.96819591	     -0.34518488	     38.37936090	     11.06822553	     -0.69904055	     47.62181066	      0.83115739	      8.92691338	      0.00000000	      0.00000000	     23.90887315	     -5.68627634	     -0.08678988	    103.99742074	      1.81509741	     -9.49112765	      0.00000000	      0.00000000	     -0.68509238	      9.48322561	      5.39161617	    -28.39536704	    -25.00902534	     -7.22695931	    104.08628451	     40.71491247	      0.00000000	      0.00000000	    -28.09272922	    -14.45898625	      3.26270072	    105.67976416	     41.45884939	      0.00000000	      0.00000000
      0.27000000	    -13.82551584	     -3.04678153	     -8.69038922	      0.98696038	      0.96491063	     -0.34595920	     36.64544801	     10.65346704	      0.29900338	     49.55583117	      0.86491242	     14.25228299	      0.00000000	      0.00000000	     27.74815620	     -5.50355351	      1.10364899	    105.69960212	      1.84480608	     -6.52541648	      0.00000000	      0.00000000	     -0.22912322	      9.23797003	      5.62129369	    -25.43902339	    -25.32991459	     -5.59571178	    101.14763986	     42.09066325	      0.00000000	      0.00000000	    -27.93894494	    -14.56245370	      4.86320062	    100.66884577	     42.80926057	      0.00000000	      0.00000000
      0.28000000	    -13.67287815	     -2.74271022	     -8.43728550	      0.98474053	      0.96334380	     -0.34620313	     34.12109055	     10.00183824	      0.38955687	     49.88921868	      0.87073113	     15.03926087	      0.00000000	      0.00000000	     31.60481726	     -5.53598062	      1.51579178	    106.97465359	      1.86705992	     -5.97635962	      0.00000000	      0.00000000	     -0.87020389	      8.79676115	      7.06406567	    -23.39824784	    -25.27759837	     -5.29744072	    100.78837471	     42.43490795	      0.00000000	      0.00000000	    -28.29418205	    -14.61930321	      5.22508077	     99.52943879	     43.10112719	      0.00000000	      0.00000000
      0.29000000	    -13.77587975	     -2.51168191	     -7.90373814	      0.98242820	      0.96335366	     -0.34671095	     31.66785855	      9.46507515	      0.63320295	     49.71675402	      0.86772105	     16.36372958	      0.00000000	      0.00000000	     35.60980656	     -5.34964062	      2.10169514	    107.37333448	      1.87401822	     -5.13672122	      0.00000000	      0.00000000	     -1.04803480	      8.35884110	      8.10163305	    -21.16572008	    -25.24730492	     -4.95803052	    100.47933128	     42.91169193	      0.00000000	      0.00000000	    -28.66669028	    -14.98237443	      5.63576122	     98.30971675	     43.47136827	      0.00000000	      0.00000000
      0.30000000	    -14.38996520	     -2.10980174	     -6.84924521	      0.98207838	      0.96490391	     -0.34775633	     28.85948916	      8.62870101	      0.92435428	     47.91137714	      0.83621128	     18.63537523	      0.00000000	      0.00000000	     39.90236197	     -4.62811870	      2.85792105	    106.60202754	      1.86055637	     -3.94889689	      0.00000000	      0.00000000	      0.12683481	      7.88753136	      8.29485098	    -19.65419007	    -25.15420491	     -4.19762491	    100.62653115	     44.11181850	      0.00000000	      0.00000000	    -29.84536353	    -15.45429611	      5.88909476	     97.82182291	     44.40378628	      0.00000000	      0.00000000
      0.31000000	    -14.60887122	     -1.86052507	     -6.64115934	      0.98068075	      0.96807967	     -0.34802256	     26.26491694	      8.00692438	      0.55161826	     47.30834906	      0.82568645	     18.45558508	      0.00000000	      0.00000000	     43.42952527	     -4.28948898	      3.08500427	    105.19663792	      1.83602769	     -3.58672948	      0.00000000	      0.00000000	      0.24808657	      7.49488624	      9.74098256	    -18.43012949	    -25.31222208	     -4.16821218	    101.49785332	     44.45933860	      0.00000000	      0.00000000	    -30.88991486	    -16.11255130	      5.53432953	     98.23440564	     44.66299774	      0.00000000	      0.00000000
      0.32000000	    -15.21636228	     -0.94502253	     -5.68166225	      0.98231279	      0.97213627	     -0.34920560	     22.73372755	      6.51674922	      0.71433577	     43.91423870	      0.76644805	     17.99486379	      0.00000000	      0.00000000	     46.89524927	     -3.11638124	      2.71264931	    102.75896418	      1.79348226	     -3.18903105	      0.00000000	      0.00000000	      1.55636689	      6.29948050	     10.09646811	    -18.28997160	    -24.61992637	     -4.04480118	    104.42715303	     45.41003297	      0.00000000	      0.00000000	    -33.08910259	    -16.76718988	      4.71927237	    100.77231302	     45.40982536	      0.00000000	      0.00000000
      0.33000000	    -15.54129507	     -0.21879954	     -5.00727619	      0.98389866	      0.97732042	     -0.34933285	     19.15842357	      5.33658641	      0.67495269	     41.05849689	      0.71660596	     16.51268812	      0.00000000	      0.00000000	     49.55104843	     -2.00074563	      2.49992070	     99.71430634	      1.74034296	     -2.78875078	      0.00000000	      0.00000000	      2.39925824	      5.14581007	     10.70598921	    -17.90712043	    -24.15593795	     -4.21783914	    107.35831692	     46.52744823	      0.00000000	      0.00000000	    -35.23632416	    -17.55508882	      3.53222851	    103.46692736	     46.26655927	      0.00000000	      0.00000000
      0.34000000	    -15.81922193	      0.47534048	     -4.37384624	      0.98592615	      0.98340818	     -0.34939794	     15.52366173	      4.20359526	      0.51594447	     38.09735319	      0.66492425	     13.88160924	      0.00000000	      0.00000000	     51.78203994	     -1.14575414	      1.82395951	     96.08772882	      1.67704724	     -2.24891002	      0.00000000	      0.00000000	      3.03153131	      4.08796326	     11.29218182	    -17.70291232	    -23.54056699	     -4.16695644	    110.20178794	     47.64091858	      0.00000000	      0.00000000	    -37.40755456	    -18.20544665	      2.57014999	    105.89797836	     47.05668782	      0.00000000	      0.00000000
      0.35000000	    -16.05783466	      1.03752211	     -3.76389009	      0.98856023	      0.99049032	     -0.34882938	     11.87195738	      3.21314976	      0.07248518	     34.84470352	      0.60815480	     10.14705894	      0.00000000	      0.00000000	     53.43657114	     -0.46146153	      1.11608173	     91.75628756	      1.60144933	     -1.72989910	      0.00000000	      0.00000000	      3.67309196	      3.08262468	     11.75608635	    -17.49890808	    -22.92426177	     -4.00250080	    113.02953886	     48.79392139	      0.00000000	      0.00000000	    -39.53236408	    -18.82696869	      1.68530157	    108.18039189	     47.79782314	      0.00000000	      0.00000000
      0.36000000	    -16.21672752	      1.48860931	     -3.00699409	      0.99175196	      0.99807166	     -0.34822139	      8.17365070	      2.34722675	     -0.84240759	     31.29477162	      0.54619680	      5.16145536	      0.00000000	      0.00000000	     54.58935456	      0.17466109	      0.31658904	     86.90607746	      1.51679719	     -1.39275454	      0.00000000	      0.00000000	      4.28706116	      2.17690678	     11.96629576	    -17.37483529	    -22.28091458	     -3.70672574	    115.86846224	     50.00681975	      0.00000000	      0.00000000	    -41.60184326	    -19.36770344	      0.76981155	    110.35600470	     48.51314944	      0.00000000	      0.00000000
